# xmcd
#
# Track frame offsets: 
#        150
#        5147
#        11592
#        18958
#        33567
#        44995
#        55270
#        66084
#        76626
#        87106
#        96782
#        109043
#        115164
#        126879
#        136986
#        146620
#        159013
#        169741
#        179873
#
# Disc length: 2589 seconds
#
# Revision: 0
# Processed by: cddbd v1.5.2PL0 Copyright (c) Steve Scherf et al.
# Submitted via: ExactAudioCopy v0.99pb4
#
DISCID=fb0a1b13
DTITLE=Mickey Gilley - Stand By Me Disc 2
DYEAR=2011
DGENRE=Country
TTITLE0=Here Comes the Hurt Again
TTITLE1=Cherokee Fiddle
TTITLE2=Lookin' for Love
TTITLE3=Stand By Me
TTITLE4=Diggy Liggy Lo
TTITLE5=Outro
TTITLE6=It's Just a Matter of Making Up My Mind
TTITLE7=Now I Can Live Again
TTITLE8=A New Way to Live
TTITLE9=Fraulein
TTITLE10=Just Out of Reach
TTITLE11=The Boy Who Didn't Pass
TTITLE12=Black Mountain Rag
TTITLE13=I Miss You So
TTITLE14=Keepin' On
TTITLE15=Still Care About You
TTITLE16=Grapevine
TTITLE17=That's How It's Got to Be
TTITLE18=Rocky Top
EXTD=
EXTT0=
EXTT1=
EXTT2=
EXTT3=
EXTT4=
EXTT5=
EXTT6=
EXTT7=
EXTT8=
EXTT9=
EXTT10=
EXTT11=
EXTT12=
EXTT13=
EXTT14=
EXTT15=
EXTT16=
EXTT17=
EXTT18=
PLAYORDER=
